REM MD5 9b647da957ab3a940a60912ec694a273
FILE "Tennis Arena (USA).bin" BINARY
  TRACK 01 MODE2/2352
    INDEX 01 00:00:00
  TRACK 02 AUDIO
    INDEX 00 00:35:01
    INDEX 01 00:37:01
  TRACK 03 AUDIO
    INDEX 00 05:00:36
    INDEX 01 05:02:36
  TRACK 04 AUDIO
    INDEX 00 05:37:05
    INDEX 01 05:39:05
  TRACK 05 AUDIO
    INDEX 00 08:29:17
    INDEX 01 08:31:17
  TRACK 06 AUDIO
    INDEX 00 08:37:37
    INDEX 01 08:39:37
  TRACK 07 AUDIO
    INDEX 00 08:47:73
    INDEX 01 08:49:73
  TRACK 08 AUDIO
    INDEX 00 08:55:68
    INDEX 01 08:57:68
  TRACK 09 AUDIO
    INDEX 00 09:05:68
    INDEX 01 09:07:68
  TRACK 10 AUDIO
    INDEX 00 09:14:34
    INDEX 01 09:16:34
  TRACK 11 AUDIO
    INDEX 00 09:25:71
    INDEX 01 09:27:71
  TRACK 12 AUDIO
    INDEX 00 09:34:08
    INDEX 01 09:36:08
  TRACK 13 AUDIO
    INDEX 00 09:45:60
    INDEX 01 09:47:60
  TRACK 14 AUDIO
    INDEX 00 09:53:49
    INDEX 01 09:55:49
  TRACK 15 AUDIO
    INDEX 00 10:05:11
    INDEX 01 10:07:11
  TRACK 16 AUDIO
    INDEX 00 10:13:72
    INDEX 01 10:15:72
  TRACK 17 AUDIO
    INDEX 00 10:24:72
    INDEX 01 10:26:72
  TRACK 18 AUDIO
    INDEX 00 10:32:26
    INDEX 01 10:34:26
  TRACK 19 AUDIO
    INDEX 00 10:40:22
    INDEX 01 10:42:22
  TRACK 20 AUDIO
    INDEX 00 10:48:30
    INDEX 01 10:50:30
  TRACK 21 AUDIO
    INDEX 00 10:56:43
    INDEX 01 10:58:43
  TRACK 22 AUDIO
    INDEX 00 11:05:41
    INDEX 01 11:07:41
  TRACK 23 AUDIO
    INDEX 00 11:13:52
    INDEX 01 11:15:52
  TRACK 24 AUDIO
    INDEX 00 11:22:18
    INDEX 01 11:24:18
  TRACK 25 AUDIO
    INDEX 00 11:34:23
    INDEX 01 11:36:23
  TRACK 26 AUDIO
    INDEX 00 11:43:28
    INDEX 01 11:45:28
  TRACK 27 AUDIO
    INDEX 00 11:51:45
    INDEX 01 11:53:45
  TRACK 28 AUDIO
    INDEX 00 11:59:69
    INDEX 01 12:01:69
  TRACK 29 AUDIO
    INDEX 00 12:12:26
    INDEX 01 12:14:26
  TRACK 30 AUDIO
    INDEX 00 12:23:62
    INDEX 01 12:25:62
  TRACK 31 AUDIO
    INDEX 00 12:32:67
    INDEX 01 12:34:67
  TRACK 32 AUDIO
    INDEX 00 12:43:27
    INDEX 01 12:45:27
  TRACK 33 AUDIO
    INDEX 00 12:55:59
    INDEX 01 12:57:59
  TRACK 34 AUDIO
    INDEX 00 13:07:13
    INDEX 01 13:09:13
  TRACK 35 AUDIO
    INDEX 00 13:19:45
    INDEX 01 13:21:45
  TRACK 36 AUDIO
    INDEX 00 13:42:48
    INDEX 01 13:44:48
  TRACK 37 AUDIO
    INDEX 00 14:06:39
    INDEX 01 14:08:39
  TRACK 38 AUDIO
    INDEX 00 14:33:59
    INDEX 01 14:35:59
  TRACK 39 AUDIO
    INDEX 00 14:54:35
    INDEX 01 14:56:35
  TRACK 40 AUDIO
    INDEX 00 15:15:01
    INDEX 01 15:17:01
  TRACK 41 AUDIO
    INDEX 00 15:53:26
    INDEX 01 15:55:26
  TRACK 42 AUDIO
    INDEX 00 16:26:51
    INDEX 01 16:28:51
  TRACK 43 AUDIO
    INDEX 00 16:46:67
    INDEX 01 16:48:67
  TRACK 44 AUDIO
    INDEX 00 17:13:04
    INDEX 01 17:15:04
  TRACK 45 AUDIO
    INDEX 00 17:47:59
    INDEX 01 17:49:59
  TRACK 46 AUDIO
    INDEX 00 17:55:01
    INDEX 01 17:57:01
  TRACK 47 AUDIO
    INDEX 00 18:01:64
    INDEX 01 18:03:64
  TRACK 48 AUDIO
    INDEX 00 18:09:38
    INDEX 01 18:11:38
  TRACK 49 AUDIO
    INDEX 00 18:22:70
    INDEX 01 18:24:70
  TRACK 50 AUDIO
    INDEX 00 18:31:54
    INDEX 01 18:33:54
  TRACK 51 AUDIO
    INDEX 00 18:44:08
    INDEX 01 18:46:08
  TRACK 52 AUDIO
    INDEX 00 18:52:62
    INDEX 01 18:54:62
  TRACK 53 AUDIO
    INDEX 00 19:05:06
    INDEX 01 19:07:06
  TRACK 54 AUDIO
    INDEX 00 21:26:22
    INDEX 01 21:28:22
REM LEADOUT 24:38:31
